<svg width="138" height="138" viewBox="0 0 138 138" fill="none" xmlns="http://www.w3.org/2000/svg">
<path d="M120.75 17.25V89.125C120.75 94.4625 118.63 99.5814 114.856 103.356C111.081 107.13 105.962 109.25 100.625 109.25C95.2875 109.25 90.1686 107.13 86.3945 103.356C82.6203 99.5814 80.5 94.4625 80.5 89.125C80.5 83.7875 82.6203 78.6686 86.3945 74.8945C90.1686 71.1203 95.2875 69 100.625 69C103.73 69 106.662 69.69 109.25 70.955V37.2025L51.75 49.45V100.625C51.75 105.962 49.6297 111.081 45.8555 114.856C42.0814 118.63 36.9625 120.75 31.625 120.75C26.2875 120.75 21.1686 118.63 17.3945 114.856C13.6203 111.081 11.5 105.962 11.5 100.625C11.5 95.2875 13.6203 90.1686 17.3945 86.3945C21.1686 82.6203 26.2875 80.5 31.625 80.5C34.73 80.5 37.6625 81.19 40.25 82.455V34.5L120.75 17.25Z" fill="black"/>
</svg>
